<?xml version="1.0" encoding="UTF-8"?>
<svg width="260px" height="305px" viewBox="0 0 260 305" version="1.1" xmlns="http://www.w3.org/2000/svg" xmlns:xlink="http://www.w3.org/1999/xlink">
    <!-- Generator: Sketch 50.2 (55047) - http://www.bohemiancoding.com/sketch -->
    <title>Group Copy</title>
    <desc>Created with Sketch.</desc>
    <defs></defs>
    <g id="Page-1" stroke="none" stroke-width="1" fill="none" fill-rule="evenodd">
        <g id="Group-Copy" transform="translate(2.000000, 2.000000)" fill="#FFFFFF" fill-rule="nonzero" stroke="#FFFFFF" stroke-width="3">
            <path d="M10,150.5 C10,226.590351 70.4865252,288.553317 146,290.929301 L146,10.0706985 C70.4865252,12.4466828 10,74.409649 10,150.5 Z M156,300.984228 L151.015014,300.999197 C150.838179,300.999728 150.667135,301 150.5,301 C67.3811452,301 0,233.618855 0,150.5 C0,67.3811452 67.3811452,0 150.5,0 C150.672306,0 150.844579,0.00028976726 151.01682,0.000869189523 L156,0.017632748 L156,300.984228 Z" id="Combined-Shape" transform="translate(78.000000, 150.500000) rotate(-180.000000) translate(-78.000000, -150.500000) "></path>
            <path d="M150.5,211 C92.2339589,211 45,163.766041 45,105.5 C45,47.2339589 92.2339589,0 150.5,0 C208.766041,0 256,47.2339589 256,105.5 C256,163.766041 208.766041,211 150.5,211 Z M150.5,201 C203.243194,201 246,158.243194 246,105.5 C246,52.7568064 203.243194,10 150.5,10 C97.7568064,10 55,52.7568064 55,105.5 C55,158.243194 97.7568064,201 150.5,201 Z" id="Oval-4"></path>
            <path d="M150.5,301 C92.2339589,301 45,253.766041 45,195.5 C45,137.233959 92.2339589,90 150.5,90 C208.766041,90 256,137.233959 256,195.5 C256,253.766041 208.766041,301 150.5,301 Z M150.5,291 C203.243194,291 246,248.243194 246,195.5 C246,142.756806 203.243194,100 150.5,100 C97.7568064,100 55,142.756806 55,195.5 C55,248.243194 97.7568064,291 150.5,291 Z" id="Oval-4-Copy"></path>
        </g>
    </g>
</svg>