<?xml version="1.0" encoding="UTF-8"?>
<svg width="266px" height="311px" viewBox="0 0 266 311" version="1.1" xmlns="http://www.w3.org/2000/svg" xmlns:xlink="http://www.w3.org/1999/xlink">
    <!-- Generator: Sketch 50.2 (55047) - http://www.bohemiancoding.com/sketch -->
    <title>Group Copy</title>
    <desc>Created with Sketch.</desc>
    <defs></defs>
    <g id="Page-1" stroke="none" stroke-width="1" fill="none" fill-rule="evenodd">
        <g id="Group-Copy" transform="translate(5.000000, 5.000000)" fill="#FFFFFF" fill-rule="nonzero" stroke="#FFFFFF" stroke-width="5">
            <path d="M143.5,288.325629 L143.5,12.6743707 C70.3771854,16.3247991 12.5,76.7958518 12.5,150.5 C12.5,224.204148 70.3771855,284.675201 143.499995,288.325628 Z M158.5,303.476732 L151.022521,303.499185 C150.841801,303.499728 150.668382,303.5 150.5,303.5 C66.0004333,303.5 -2.5,234.999567 -2.5,150.5 C-2.5,66.0004333 66.0004333,-2.5 150.5,-2.5 C150.675101,-2.5 150.850178,-2.49970555 151.02523,-2.49911666 L158.5,-2.47397133 L158.5,303.476732 Z" id="Combined-Shape" transform="translate(78.000000, 150.500000) rotate(-180.000000) translate(-78.000000, -150.500000) "></path>
            <path d="M150.5,213.5 C90.853247,213.5 42.5,165.146753 42.5,105.5 C42.5,45.853247 90.853247,-2.5 150.5,-2.5 C210.146753,-2.5 258.5,45.853247 258.5,105.5 C258.5,165.146753 210.146753,213.5 150.5,213.5 Z M150.5,198.5 C201.862482,198.5 243.5,156.862482 243.5,105.5 C243.5,54.1375183 201.862482,12.5 150.5,12.5 C99.1375183,12.5 57.5,54.1375183 57.5,105.5 C57.5,156.862482 99.1375183,198.5 150.5,198.5 Z" id="Oval-4"></path>
            <path d="M150.5,303.5 C90.853247,303.5 42.5,255.146753 42.5,195.5 C42.5,135.853247 90.853247,87.5 150.5,87.5 C210.146753,87.5 258.5,135.853247 258.5,195.5 C258.5,255.146753 210.146753,303.5 150.5,303.5 Z M150.5,288.5 C201.862482,288.5 243.5,246.862482 243.5,195.5 C243.5,144.137518 201.862482,102.5 150.5,102.5 C99.1375183,102.5 57.5,144.137518 57.5,195.5 C57.5,246.862482 99.1375183,288.5 150.5,288.5 Z" id="Oval-4-Copy"></path>
        </g>
    </g>
</svg>