<?xml version="1.0" encoding="UTF-8"?>
<svg width="500px" height="501px" viewBox="0 0 500 501" version="1.1" xmlns="http://www.w3.org/2000/svg" xmlns:xlink="http://www.w3.org/1999/xlink">
    <!-- Generator: Sketch 50.2 (55047) - http://www.bohemiancoding.com/sketch -->
    <title>noun_871160_cc</title>
    <desc>Created with Sketch.</desc>
    <defs></defs>
    <g id="Page-1" stroke="none" stroke-width="1" fill="none" fill-rule="evenodd">
        <g id="noun_871160_cc">
            <g id="Group">
                <g fill="#1A1A1A" fill-rule="nonzero">
                    <g id="Group-2">
                        <path d="M122.5,277 C122,277 121.5,277 120.5,276.5 C118.5,275.5 118,273 119,271.5 L142,230 C143,228 145.5,227.5 147,228.5 C149,229.5 149.5,232 148.5,233.5 L126,275 C125,276.5 124,277 122.5,277 Z" id="Shape"></path>
                        <path d="M154.5,268 C154,268 153.5,268 152.5,267.5 L111,244.5 C109,243.5 108.5,241 109.5,239.5 C110.5,238 113,237 114.5,238 L156,261 C158,262 158.5,264.5 157.5,266 C157,267 156,268 154.5,268 Z" id="Shape"></path>
                        <path d="M387,129 C385.5,129 384.5,128.5 383.5,127 C382.5,125 383,123 385,122 L426,98.5 C428,97.5 430,98 431,100 C432,102 431.5,104 429.5,105 L388.5,128.5 C388,129 387.5,129 387,129 Z" id="Shape"></path>
                        <path d="M419.5,137.5 C418,137.5 417,137 416,135.5 L392.5,95 C391.5,93 392,91 394,90 C396,89 398,89.5 399,91.5 L422.5,132.5 C423.5,134.5 423,136.5 421,137.5 C420.5,137.5 420,137.5 419.5,137.5 Z" id="Shape"></path>
                        <path d="M180,455 C178.5,455 177,454 176.5,452.5 L161.5,407.5 C161,405.5 162,403.5 164,402.5 C166,402 168,403 168.5,405 L183.5,450 C184,452 183,454 181,455 C180.5,455 180,455 180,455 Z" id="Shape"></path>
                        <path d="M150,440 C148.5,440 147,439 146.5,437.5 C146,435.5 147,433.5 149,432.5 L194,417.5 C196,417 198,418 198.5,420 C199,422 198,424 196,425 L151,440 C150.5,440 150.5,440 150,440 Z" id="Shape"></path>
                        <path d="M436,425.5 C435,425.5 434.5,425 433.5,424.5 L397,395 C395.5,393.5 395,391.5 396.5,389.5 C398,388 400,387.5 402,389 L439,418.5 C440.5,420 441,422 439.5,424 C438.5,425 437.5,425.5 436,425.5 Z" id="Shape"></path>
                        <path d="M403,429 C402,429 401.5,428.5 400.5,428 C399,426.5 398.5,424.5 400,422.5 L429.5,385.5 C431,384 433,383.5 435,385 C436.5,386.5 437,388.5 435.5,390.5 L406,427.5 C405,428.5 404,429 403,429 Z" id="Shape"></path>
                        <path d="M177.5,170 C176,170 175,169.5 174,168 C150,124.5 182,99.5 182,99 C183.5,97.5 186,98 187.5,99.5 C189,101 188.5,103.5 187,104.5 C186,105.5 160,126 181,163.5 C182,165.5 181.5,167.5 179.5,168.5 C178.5,169.5 178,170 177.5,170 Z" id="Shape"></path>
                        <path d="M80.5,142 C70.5,142 62,133.5 62,123.5 C62,113.5 70.5,105 80.5,105 C90.5,105 99,113.5 99,123.5 C99,133.5 91,142 80.5,142 Z M80.5,112.5 C74.5,112.5 69.5,117.5 69.5,123.5 C69.5,129.5 74.5,134.5 80.5,134.5 C86.5,134.5 91.5,129.5 91.5,123.5 C91.5,117.5 86.5,112.5 80.5,112.5 Z" id="Shape"></path>
                        <path d="M292.5,85 C282.5,85 274,76.5 274,66.5 C274,56.5 282.5,48 292.5,48 C302.5,48 311,56.5 311,66.5 C311,76.5 302.5,85 292.5,85 Z M292.5,56 C286.5,56 281.5,61 281.5,67 C281.5,73 286.5,78 292.5,78 C298.5,78 303.5,73 303.5,67 C303.5,61 298.5,56 292.5,56 Z" id="Shape"></path>
                        <path d="M406.5,225.5 C400,225.5 394,222 390.5,216.5 C385.5,207.5 388.5,196.5 397.5,191.5 C402,189 406.5,188.5 411.5,189.5 C416.5,191 420,194 422.5,198 C425,202.5 425.5,207 424.5,212 C423.5,217 420,220.5 416,223 C413,224.5 409.5,225.5 406.5,225.5 Z M406.5,196 C404.5,196 402.5,196.5 401,197.5 C396,200.5 394,207 397,212.5 C400,217.5 406.5,219.5 412,216.5 C414.5,215 416.5,212.5 417,210 C417.5,207.5 417.5,204 416,201.5 C414.5,199 412,197 409.5,196.5 C408.5,196 407.5,196 406.5,196 Z" id="Shape"></path>
                        <path d="M284,255 C283.5,255 283,255 282.5,254.5 C280.5,253.5 279.5,251.5 280.5,249.5 L313.5,173 C314.5,171 316.5,170 318.5,171 C320.5,172 321.5,174 320.5,176 L287.5,252.5 C286.5,254 285.5,255 284,255 Z" id="Shape"></path>
                        <path d="M279,409.5 C277.5,409.5 276,408.5 275.5,406.5 C275,404.5 276,402.5 278,402 L358.5,380 C360.5,379.5 362.5,380.5 363,382.5 C363.5,384.5 362.5,386.5 360.5,387 L280,409.5 C279.5,409.5 279,409.5 279,409.5 Z" id="Shape"></path>
                        <path d="M377.5,333.5 C377,333.5 376.5,333.5 376,333 C375,332.5 374,331 374,330 L370.5,280 C370.5,278.5 371,277.5 372.5,276.5 C373.5,276 375,276 376.5,276.5 L419,303 C420,303.5 421,305 421,306 C421,307.5 420.5,308.5 419,309 L380,332.5 C379,333.5 378.5,333.5 377.5,333.5 Z M378.5,287.5 L381,324 L409.5,307 L378.5,287.5 Z" id="Shape"></path>
                        <path d="M54,353 C53.5,353 53,353 52.5,352.5 C51.5,352 50.5,350.5 50.5,349.5 L47,299.5 C47,298 47.5,297 49,296 C50,295.5 51.5,295.5 53,296 L95.5,322.5 C96.5,323 97.5,324.5 97.5,325.5 C97.5,327 97,328 95.5,328.5 L56.5,352 C55,352.5 54.5,353 54,353 Z M54.5,306.5 L57,343 L85.5,326 L54.5,306.5 Z" id="Shape"></path>
                        <path d="M248,373.5 C247.5,373.5 246.5,373.5 246,373 L222,358 C221,357 220,356 220.5,354.5 C220.5,353 221.5,352 223,351.5 L229,349.5 L212,338.5 C211,337.5 210,336.5 210.5,335 C210.5,333.5 211.5,332.5 213,332 L219,330 L202,319 C200.5,318 199.5,315.5 201,314 C202,312 204.5,311.5 206,313 L230,328 C231,329 232,330 231.5,331.5 C231,333 230.5,334 229,334.5 L223,336.5 L240,347.5 C241,348.5 242,349.5 241.5,351 C241.5,352.5 240.5,353.5 239,354 L233,356 L250,367 C251.5,368 252.5,370.5 251,372 C250.5,373 249.5,373.5 248,373.5 Z" id="Shape"></path>
                        <path d="M209.5,250 C207.5,250 206,248.5 206,246.5 C206,244.5 207.5,242.5 209.5,242.5 C219.5,242 227.5,234.5 229,224.5 C230.5,214.5 224.5,205 215,202 C213,201.5 212,199.5 212.5,197.5 C213,195.5 215.5,194.5 217,195 C230,199 238,212 236,225.5 C234,239 223,249.5 209.5,250 C209.5,250 209.5,250 209.5,250 Z" id="Shape"></path>
                        <path d="M295,313.5 C292.5,313.5 290.5,311.5 290.5,309 C290.5,306.5 292.5,304.5 295,304.5 C297.5,304.5 299.5,306.5 299.5,309 C299.5,311.5 298,313.5 295,313.5 Z" id="Shape"></path>
                        <path d="M453,475 C450.5,475 448.5,473 448.5,470.5 C448.5,468 450.5,466 453,466 C455.5,466 457.5,468 457.5,470.5 C457.5,473 455.5,475 453,475 Z" id="Shape"></path>
                        <path d="M71,217.5 C68.5,217.5 66.5,215.5 66.5,213 C66.5,210.5 68.5,208.5 71,208.5 C73.5,208.5 75.5,210.5 75.5,213 C75.5,215.5 73.5,217.5 71,217.5 Z" id="Shape"></path>
                        <path d="M210,159.5 C207.5,159.5 205.5,157.5 205.5,155 C205.5,152.5 207.5,150 210,150 C212.5,150 215,152 215,155 C215,158 212.5,159.5 210,159.5 Z" id="Shape"></path>
                        <path d="M80.5,71.5 C78,71.5 76,69.5 76,67 C76,64.5 78,62.5 80.5,62.5 C83,62.5 85,64.5 85,67 C85,69.5 83,71.5 80.5,71.5 Z" id="Shape"></path>
                        <path d="M226,40.5 C223.5,40.5 221.5,38.5 221.5,36 C221.5,33.5 223.5,31.5 226,31.5 C228.5,31.5 230.5,33.5 230.5,36 C230.5,38.5 228.5,40.5 226,40.5 Z" id="Shape"></path>
                        <path d="M445.5,268.5 C443,268.5 441,266.5 441,264 C441,261.5 443,259.5 445.5,259.5 C448,259.5 450,261.5 450,264 C450,266.5 448,268.5 445.5,268.5 Z" id="Shape"></path>
                        <path d="M458.5,359.5 C456,359.5 454,357.5 454,355 C454,352.5 456,350.5 458.5,350.5 C461,350.5 463,352.5 463,355 C463,357.5 461,359.5 458.5,359.5 Z" id="Shape"></path>
                        <path d="M306.5,106.5 C304,106.5 302,104.5 302,102 C302,99.5 304,97.5 306.5,97.5 C309,97.5 311,99.5 311,102 C311,104.5 309,106.5 306.5,106.5 Z" id="Shape"></path>
                        <path d="M453.5,72.5 C451,72.5 449,70.5 449,68 C449,65.5 451,63.5 453.5,63.5 C456,63.5 458,65.5 458,68 C458,70.5 456,72.5 453.5,72.5 Z" id="Shape"></path>
                        <path d="M145.5,358.5 C143,358.5 141,356.5 141,354 C141,351.5 143,349.5 145.5,349.5 C148,349.5 150,351.5 150,354 C150,356.5 148,358.5 145.5,358.5 Z" id="Shape"></path>
                        <path d="M315,466.5 C312.5,466.5 310.5,464.5 310.5,462 C310.5,459.5 312.5,457.5 315,457.5 C317.5,457.5 319.5,459.5 319.5,462 C319.5,464.5 317.5,466.5 315,466.5 Z" id="Shape"></path>
                        <path d="M48,405 C45.5,405 43.5,403 43.5,400.5 C43.5,398 45.5,396 48,396 C50.5,396 52.5,398 52.5,400.5 C52.5,403 50.5,405 48,405 Z" id="Shape"></path>
                        <path d="M89.5,466 C87,466 85,464 85,461.5 C85,459 87,457 89.5,457 C92,457 94,459 94,461.5 C94,464 92,466 89.5,466 Z" id="Shape"></path>
                        <path d="M32.5,483 C30,483 28,481 28,478.5 C28,476 30,474 32.5,474 C35,474 37,476 37,478.5 C37,481 35,483 32.5,483 Z" id="Shape"></path>
                        <path d="M377.5,475 C376.5,474.5 375,474.5 373.5,475 L333.5,500 L347.5,500 L371,485.5 L370,500 L377.5,500 L379,478.5 C379,477 378.5,476 377.5,475 Z" id="Shape"></path>
                        <path d="M20.5,297 C20.5,298.5 22,300 24,300 C24,300 24.5,300 24.5,300 C26.5,299.5 28,297.5 27.5,295.5 C25,282 13.5,272.5 0,272.5 L0,280 C10,280 18.5,287 20.5,297 Z" id="Shape"></path>
                        <path d="M14.5,68 C13.5,69.5 14,72 15.5,73 C16,73.5 17,73.5 17.5,73.5 C18.5,73.5 20,73 20.5,72 C28,61 27,45.5 17.5,36 C12.5,31 6.5,28.5 0,28 L0,35.5 C4.5,36 8.5,38 12,41.5 C19,49 20,60 14.5,68 Z" id="Shape"></path>
                        <path d="M32.5,200.5 C33,200.5 34,200.5 34.5,200 C36,199 36.5,196.5 35.5,195 L0,141.5 L0,155 L29.5,199 C30.5,199.5 31.5,200.5 32.5,200.5 Z" id="Shape"></path>
                        <path d="M101.5,2.5 C100,2.5 98.5,3.5 98,5 C97.5,6.5 98,8 99,9 L113,23.5 L106.5,24 C105,24 103.5,25 103,26.5 C102.5,28 103,29.5 104,30.5 L124,51 C124.5,52 125.5,52 126.5,52 C127.5,52 128.5,51.5 129,51 C130.5,49.5 130.5,47 129,45.5 L115,31 L121.5,30.5 C123,30.5 124.5,29.5 125,28 C125.5,26.5 125,25 124,24 L110,9.5 L116.5,9 C118,9 119.5,8 120,6.5 C120.5,5 120,3.5 119,2.5 L116.5,0 L106,0 L108,2 L101.5,2.5 Z" id="Shape"></path>
                        <path d="M268.5,16.5 C269,16.5 269,16.5 269.5,16.5 C271,16.5 273,15.5 273,13.5 C273.5,11.5 272,9.5 270,9 C260.5,7 253.5,3.5 248,0 L236.5,0 C243.5,7 253.5,13 268.5,16.5 Z" id="Shape"></path>
                        <path d="M21,427 C21,417 12.5,408.5 2.5,408.5 C1.5,408.5 0.5,408.5 0,409 L0,416.5 C1,416.5 1.5,416 2.5,416 C8.5,416 13.5,421 13.5,427 C13.5,433 8.5,438 2.5,438 C1.5,438 0.5,438 0,437.5 L0,445 C1,445 1.5,445 2.5,445 C13,445.5 21,437 21,427 Z" id="Shape"></path>
                        <path d="M475,300 C477,300.5 479,299 479.5,297 C481.5,287 490,280 500,280 C500,280 500,280 500,280 L500,272.5 C500,272.5 500,272.5 500,272.5 C486.5,272.5 474.5,282 472.5,295.5 C472,297.5 473,299.5 475,300 Z" id="Shape"></path>
                        <path d="M500,437.5 C495,436.5 491.5,432 491.5,427 C491.5,422 495,417.5 500,416.5 L500,409 C491,410.5 484,418 484,427 C484,436.5 491,444 500,445 L500,437.5 Z" id="Shape"></path>
                        <path d="M481.5,33 C480,34 479.5,36.5 480.5,38 C481.5,39.5 484,40 485.5,39 C490,36.5 495,35 500,36 L500,28.5 C493.5,27.5 487,29 481.5,33 Z" id="Shape"></path>
                        <path d="M372,32 C372.5,32 373,32 373.5,31.5 C375,31 375.5,30 376,28.5 L377.5,0 L370,0 L368.5,22 L340,4.5 L348,0 L334,0 L331.5,1.5 C330,2.5 329.5,3.5 329.5,5 C329.5,6.5 330,7.5 331.5,8 L370,31.5 C370.5,32 371.5,32 372,32 Z" id="Shape"></path>
                        <path d="M484,124.5 C482.5,125.5 482,128 483,129.5 L500,155 L500,141.5 L489,125.5 C488,123.5 485.5,123 484,124.5 Z" id="Shape"></path>
                        <path d="M230,465 C230,463 228.5,461 226.5,461 C224.5,461 222.5,462.5 222.5,464.5 C222.5,465 221.5,484.5 236.5,500 L248,500 C229,486.5 230,466.5 230,465 Z" id="Shape"></path>
                        <path d="M94,482.5 C92.5,484 92.5,486.5 94,488 L106,500.5 L116.5,500.5 L99.5,483 C98,481 95.5,481 94,482.5 Z" id="Shape"></path>
                    </g>
                    <g id="Group-2-Copy">
                        <path d="M122.5,277 C122,277 121.5,277 120.5,276.5 C118.5,275.5 118,273 119,271.5 L142,230 C143,228 145.5,227.5 147,228.5 C149,229.5 149.5,232 148.5,233.5 L126,275 C125,276.5 124,277 122.5,277 Z" id="Shape"></path>
                        <path d="M154.5,268 C154,268 153.5,268 152.5,267.5 L111,244.5 C109,243.5 108.5,241 109.5,239.5 C110.5,238 113,237 114.5,238 L156,261 C158,262 158.5,264.5 157.5,266 C157,267 156,268 154.5,268 Z" id="Shape"></path>
                        <path d="M387,129 C385.5,129 384.5,128.5 383.5,127 C382.5,125 383,123 385,122 L426,98.5 C428,97.5 430,98 431,100 C432,102 431.5,104 429.5,105 L388.5,128.5 C388,129 387.5,129 387,129 Z" id="Shape"></path>
                        <path d="M419.5,137.5 C418,137.5 417,137 416,135.5 L392.5,95 C391.5,93 392,91 394,90 C396,89 398,89.5 399,91.5 L422.5,132.5 C423.5,134.5 423,136.5 421,137.5 C420.5,137.5 420,137.5 419.5,137.5 Z" id="Shape"></path>
                        <path d="M180,455 C178.5,455 177,454 176.5,452.5 L161.5,407.5 C161,405.5 162,403.5 164,402.5 C166,402 168,403 168.5,405 L183.5,450 C184,452 183,454 181,455 C180.5,455 180,455 180,455 Z" id="Shape"></path>
                        <path d="M150,440 C148.5,440 147,439 146.5,437.5 C146,435.5 147,433.5 149,432.5 L194,417.5 C196,417 198,418 198.5,420 C199,422 198,424 196,425 L151,440 C150.5,440 150.5,440 150,440 Z" id="Shape"></path>
                        <path d="M436,425.5 C435,425.5 434.5,425 433.5,424.5 L397,395 C395.5,393.5 395,391.5 396.5,389.5 C398,388 400,387.5 402,389 L439,418.5 C440.5,420 441,422 439.5,424 C438.5,425 437.5,425.5 436,425.5 Z" id="Shape"></path>
                        <path d="M403,429 C402,429 401.5,428.5 400.5,428 C399,426.5 398.5,424.5 400,422.5 L429.5,385.5 C431,384 433,383.5 435,385 C436.5,386.5 437,388.5 435.5,390.5 L406,427.5 C405,428.5 404,429 403,429 Z" id="Shape"></path>
                        <path d="M177.5,170 C176,170 175,169.5 174,168 C150,124.5 182,99.5 182,99 C183.5,97.5 186,98 187.5,99.5 C189,101 188.5,103.5 187,104.5 C186,105.5 160,126 181,163.5 C182,165.5 181.5,167.5 179.5,168.5 C178.5,169.5 178,170 177.5,170 Z" id="Shape"></path>
                        <path d="M80.5,142 C70.5,142 62,133.5 62,123.5 C62,113.5 70.5,105 80.5,105 C90.5,105 99,113.5 99,123.5 C99,133.5 91,142 80.5,142 Z M80.5,112.5 C74.5,112.5 69.5,117.5 69.5,123.5 C69.5,129.5 74.5,134.5 80.5,134.5 C86.5,134.5 91.5,129.5 91.5,123.5 C91.5,117.5 86.5,112.5 80.5,112.5 Z" id="Shape"></path>
                        <path d="M292.5,85 C282.5,85 274,76.5 274,66.5 C274,56.5 282.5,48 292.5,48 C302.5,48 311,56.5 311,66.5 C311,76.5 302.5,85 292.5,85 Z M292.5,56 C286.5,56 281.5,61 281.5,67 C281.5,73 286.5,78 292.5,78 C298.5,78 303.5,73 303.5,67 C303.5,61 298.5,56 292.5,56 Z" id="Shape"></path>
                        <path d="M406.5,225.5 C400,225.5 394,222 390.5,216.5 C385.5,207.5 388.5,196.5 397.5,191.5 C402,189 406.5,188.5 411.5,189.5 C416.5,191 420,194 422.5,198 C425,202.5 425.5,207 424.5,212 C423.5,217 420,220.5 416,223 C413,224.5 409.5,225.5 406.5,225.5 Z M406.5,196 C404.5,196 402.5,196.5 401,197.5 C396,200.5 394,207 397,212.5 C400,217.5 406.5,219.5 412,216.5 C414.5,215 416.5,212.5 417,210 C417.5,207.5 417.5,204 416,201.5 C414.5,199 412,197 409.5,196.5 C408.5,196 407.5,196 406.5,196 Z" id="Shape"></path>
                        <path d="M284,255 C283.5,255 283,255 282.5,254.5 C280.5,253.5 279.5,251.5 280.5,249.5 L313.5,173 C314.5,171 316.5,170 318.5,171 C320.5,172 321.5,174 320.5,176 L287.5,252.5 C286.5,254 285.5,255 284,255 Z" id="Shape"></path>
                        <path d="M279,409.5 C277.5,409.5 276,408.5 275.5,406.5 C275,404.5 276,402.5 278,402 L358.5,380 C360.5,379.5 362.5,380.5 363,382.5 C363.5,384.5 362.5,386.5 360.5,387 L280,409.5 C279.5,409.5 279,409.5 279,409.5 Z" id="Shape"></path>
                        <path d="M377.5,333.5 C377,333.5 376.5,333.5 376,333 C375,332.5 374,331 374,330 L370.5,280 C370.5,278.5 371,277.5 372.5,276.5 C373.5,276 375,276 376.5,276.5 L419,303 C420,303.5 421,305 421,306 C421,307.5 420.5,308.5 419,309 L380,332.5 C379,333.5 378.5,333.5 377.5,333.5 Z M378.5,287.5 L381,324 L409.5,307 L378.5,287.5 Z" id="Shape"></path>
                        <path d="M54,353 C53.5,353 53,353 52.5,352.5 C51.5,352 50.5,350.5 50.5,349.5 L47,299.5 C47,298 47.5,297 49,296 C50,295.5 51.5,295.5 53,296 L95.5,322.5 C96.5,323 97.5,324.5 97.5,325.5 C97.5,327 97,328 95.5,328.5 L56.5,352 C55,352.5 54.5,353 54,353 Z M54.5,306.5 L57,343 L85.5,326 L54.5,306.5 Z" id="Shape"></path>
                        <path d="M248,373.5 C247.5,373.5 246.5,373.5 246,373 L222,358 C221,357 220,356 220.5,354.5 C220.5,353 221.5,352 223,351.5 L229,349.5 L212,338.5 C211,337.5 210,336.5 210.5,335 C210.5,333.5 211.5,332.5 213,332 L219,330 L202,319 C200.5,318 199.5,315.5 201,314 C202,312 204.5,311.5 206,313 L230,328 C231,329 232,330 231.5,331.5 C231,333 230.5,334 229,334.5 L223,336.5 L240,347.5 C241,348.5 242,349.5 241.5,351 C241.5,352.5 240.5,353.5 239,354 L233,356 L250,367 C251.5,368 252.5,370.5 251,372 C250.5,373 249.5,373.5 248,373.5 Z" id="Shape"></path>
                        <path d="M209.5,250 C207.5,250 206,248.5 206,246.5 C206,244.5 207.5,242.5 209.5,242.5 C219.5,242 227.5,234.5 229,224.5 C230.5,214.5 224.5,205 215,202 C213,201.5 212,199.5 212.5,197.5 C213,195.5 215.5,194.5 217,195 C230,199 238,212 236,225.5 C234,239 223,249.5 209.5,250 C209.5,250 209.5,250 209.5,250 Z" id="Shape"></path>
                        <path d="M295,313.5 C292.5,313.5 290.5,311.5 290.5,309 C290.5,306.5 292.5,304.5 295,304.5 C297.5,304.5 299.5,306.5 299.5,309 C299.5,311.5 298,313.5 295,313.5 Z" id="Shape"></path>
                        <path d="M453,475 C450.5,475 448.5,473 448.5,470.5 C448.5,468 450.5,466 453,466 C455.5,466 457.5,468 457.5,470.5 C457.5,473 455.5,475 453,475 Z" id="Shape"></path>
                        <path d="M71,217.5 C68.5,217.5 66.5,215.5 66.5,213 C66.5,210.5 68.5,208.5 71,208.5 C73.5,208.5 75.5,210.5 75.5,213 C75.5,215.5 73.5,217.5 71,217.5 Z" id="Shape"></path>
                        <path d="M210,159.5 C207.5,159.5 205.5,157.5 205.5,155 C205.5,152.5 207.5,150 210,150 C212.5,150 215,152 215,155 C215,158 212.5,159.5 210,159.5 Z" id="Shape"></path>
                        <path d="M80.5,71.5 C78,71.5 76,69.5 76,67 C76,64.5 78,62.5 80.5,62.5 C83,62.5 85,64.5 85,67 C85,69.5 83,71.5 80.5,71.5 Z" id="Shape"></path>
                        <path d="M226,40.5 C223.5,40.5 221.5,38.5 221.5,36 C221.5,33.5 223.5,31.5 226,31.5 C228.5,31.5 230.5,33.5 230.5,36 C230.5,38.5 228.5,40.5 226,40.5 Z" id="Shape"></path>
                        <path d="M445.5,268.5 C443,268.5 441,266.5 441,264 C441,261.5 443,259.5 445.5,259.5 C448,259.5 450,261.5 450,264 C450,266.5 448,268.5 445.5,268.5 Z" id="Shape"></path>
                        <path d="M458.5,359.5 C456,359.5 454,357.5 454,355 C454,352.5 456,350.5 458.5,350.5 C461,350.5 463,352.5 463,355 C463,357.5 461,359.5 458.5,359.5 Z" id="Shape"></path>
                        <path d="M306.5,106.5 C304,106.5 302,104.5 302,102 C302,99.5 304,97.5 306.5,97.5 C309,97.5 311,99.5 311,102 C311,104.5 309,106.5 306.5,106.5 Z" id="Shape"></path>
                        <path d="M453.5,72.5 C451,72.5 449,70.5 449,68 C449,65.5 451,63.5 453.5,63.5 C456,63.5 458,65.5 458,68 C458,70.5 456,72.5 453.5,72.5 Z" id="Shape"></path>
                        <path d="M145.5,358.5 C143,358.5 141,356.5 141,354 C141,351.5 143,349.5 145.5,349.5 C148,349.5 150,351.5 150,354 C150,356.5 148,358.5 145.5,358.5 Z" id="Shape"></path>
                        <path d="M315,466.5 C312.5,466.5 310.5,464.5 310.5,462 C310.5,459.5 312.5,457.5 315,457.5 C317.5,457.5 319.5,459.5 319.5,462 C319.5,464.5 317.5,466.5 315,466.5 Z" id="Shape"></path>
                        <path d="M48,405 C45.5,405 43.5,403 43.5,400.5 C43.5,398 45.5,396 48,396 C50.5,396 52.5,398 52.5,400.5 C52.5,403 50.5,405 48,405 Z" id="Shape"></path>
                        <path d="M89.5,466 C87,466 85,464 85,461.5 C85,459 87,457 89.5,457 C92,457 94,459 94,461.5 C94,464 92,466 89.5,466 Z" id="Shape"></path>
                        <path d="M32.5,483 C30,483 28,481 28,478.5 C28,476 30,474 32.5,474 C35,474 37,476 37,478.5 C37,481 35,483 32.5,483 Z" id="Shape"></path>
                        <path d="M377.5,475 C376.5,474.5 375,474.5 373.5,475 L333.5,500 L347.5,500 L371,485.5 L370,500 L377.5,500 L379,478.5 C379,477 378.5,476 377.5,475 Z" id="Shape"></path>
                        <path d="M20.5,297 C20.5,298.5 22,300 24,300 C24,300 24.5,300 24.5,300 C26.5,299.5 28,297.5 27.5,295.5 C25,282 13.5,272.5 0,272.5 L0,280 C10,280 18.5,287 20.5,297 Z" id="Shape"></path>
                        <path d="M14.5,68 C13.5,69.5 14,72 15.5,73 C16,73.5 17,73.5 17.5,73.5 C18.5,73.5 20,73 20.5,72 C28,61 27,45.5 17.5,36 C12.5,31 6.5,28.5 0,28 L0,35.5 C4.5,36 8.5,38 12,41.5 C19,49 20,60 14.5,68 Z" id="Shape"></path>
                        <path d="M32.5,200.5 C33,200.5 34,200.5 34.5,200 C36,199 36.5,196.5 35.5,195 L0,141.5 L0,155 L29.5,199 C30.5,199.5 31.5,200.5 32.5,200.5 Z" id="Shape"></path>
                        <path d="M101.5,2.5 C100,2.5 98.5,3.5 98,5 C97.5,6.5 98,8 99,9 L113,23.5 L106.5,24 C105,24 103.5,25 103,26.5 C102.5,28 103,29.5 104,30.5 L124,51 C124.5,52 125.5,52 126.5,52 C127.5,52 128.5,51.5 129,51 C130.5,49.5 130.5,47 129,45.5 L115,31 L121.5,30.5 C123,30.5 124.5,29.5 125,28 C125.5,26.5 125,25 124,24 L110,9.5 L116.5,9 C118,9 119.5,8 120,6.5 C120.5,5 120,3.5 119,2.5 L116.5,0 L106,0 L108,2 L101.5,2.5 Z" id="Shape"></path>
                        <path d="M268.5,16.5 C269,16.5 269,16.5 269.5,16.5 C271,16.5 273,15.5 273,13.5 C273.5,11.5 272,9.5 270,9 C260.5,7 253.5,3.5 248,0 L236.5,0 C243.5,7 253.5,13 268.5,16.5 Z" id="Shape"></path>
                        <path d="M21,427 C21,417 12.5,408.5 2.5,408.5 C1.5,408.5 0.5,408.5 0,409 L0,416.5 C1,416.5 1.5,416 2.5,416 C8.5,416 13.5,421 13.5,427 C13.5,433 8.5,438 2.5,438 C1.5,438 0.5,438 0,437.5 L0,445 C1,445 1.5,445 2.5,445 C13,445.5 21,437 21,427 Z" id="Shape"></path>
                        <path d="M475,300 C477,300.5 479,299 479.5,297 C481.5,287 490,280 500,280 C500,280 500,280 500,280 L500,272.5 C500,272.5 500,272.5 500,272.5 C486.5,272.5 474.5,282 472.5,295.5 C472,297.5 473,299.5 475,300 Z" id="Shape"></path>
                        <path d="M500,437.5 C495,436.5 491.5,432 491.5,427 C491.5,422 495,417.5 500,416.5 L500,409 C491,410.5 484,418 484,427 C484,436.5 491,444 500,445 L500,437.5 Z" id="Shape"></path>
                        <path d="M481.5,33 C480,34 479.5,36.5 480.5,38 C481.5,39.5 484,40 485.5,39 C490,36.5 495,35 500,36 L500,28.5 C493.5,27.5 487,29 481.5,33 Z" id="Shape"></path>
                        <path d="M372,32 C372.5,32 373,32 373.5,31.5 C375,31 375.5,30 376,28.5 L377.5,0 L370,0 L368.5,22 L340,4.5 L348,0 L334,0 L331.5,1.5 C330,2.5 329.5,3.5 329.5,5 C329.5,6.5 330,7.5 331.5,8 L370,31.5 C370.5,32 371.5,32 372,32 Z" id="Shape"></path>
                        <path d="M484,124.5 C482.5,125.5 482,128 483,129.5 L500,155 L500,141.5 L489,125.5 C488,123.5 485.5,123 484,124.5 Z" id="Shape"></path>
                        <path d="M230,465 C230,463 228.5,461 226.5,461 C224.5,461 222.5,462.5 222.5,464.5 C222.5,465 221.5,484.5 236.5,500 L248,500 C229,486.5 230,466.5 230,465 Z" id="Shape"></path>
                        <path d="M94,482.5 C92.5,484 92.5,486.5 94,488 L106,500.5 L116.5,500.5 L99.5,483 C98,481 95.5,481 94,482.5 Z" id="Shape"></path>
                    </g>
                </g>
                <g transform="translate(380.000000, 85.000000)"></g>
                <g transform="translate(145.000000, 400.000000)"></g>
                <g transform="translate(395.000000, 380.000000)"></g>
            </g>
            <g id="Group"></g>
            <g id="Group-Copy"></g>
        </g>
    </g>
</svg>