<?xml version="1.0" encoding="UTF-8"?>
<svg width="252px" height="297px" viewBox="0 0 252 297" version="1.1" xmlns="http://www.w3.org/2000/svg" xmlns:xlink="http://www.w3.org/1999/xlink">
    <!-- Generator: Sketch 50.2 (55047) - http://www.bohemiancoding.com/sketch -->
    <title>Group Copy</title>
    <desc>Created with Sketch.</desc>
    <defs></defs>
    <g id="Page-1" stroke="none" stroke-width="1" fill="none" fill-rule="evenodd">
        <g id="Group-Copy" fill="#000000" fill-rule="nonzero">
            <path d="M5.5,148.5 C5.5,226.808974 68.4452282,290.416302 146.5,291.486299 L146.5,5.51370073 C68.4452282,6.58369837 5.5,70.1910263 5.5,148.5 Z M151.5,296.491724 L149.007507,296.499208 C148.833103,296.499732 148.664553,296.5 148.5,296.5 C66.761857,296.5 0.5,230.238143 0.5,148.5 C0.5,66.761857 66.761857,0.5 148.5,0.5 C148.669503,0.5 148.838973,0.500285052 149.00841,0.500855044 L151.5,0.509236823 L151.5,296.491724 Z" id="Combined-Shape" transform="translate(76.000000, 148.500000) rotate(-180.000000) translate(-76.000000, -148.500000) "></path>
            <path d="M148.5,206.5 C91.6146708,206.5 45.5,160.385329 45.5,103.5 C45.5,46.6146708 91.6146708,0.5 148.5,0.5 C205.385329,0.5 251.5,46.6146708 251.5,103.5 C251.5,160.385329 205.385329,206.5 148.5,206.5 Z M148.5,201.5 C202.623905,201.5 246.5,157.623905 246.5,103.5 C246.5,49.3760945 202.623905,5.5 148.5,5.5 C94.3760945,5.5 50.5,49.3760945 50.5,103.5 C50.5,157.623905 94.3760945,201.5 148.5,201.5 Z" id="Oval-4"></path>
            <path d="M148.5,296.5 C91.6146708,296.5 45.5,250.385329 45.5,193.5 C45.5,136.614671 91.6146708,90.5 148.5,90.5 C205.385329,90.5 251.5,136.614671 251.5,193.5 C251.5,250.385329 205.385329,296.5 148.5,296.5 Z M148.5,291.5 C202.623905,291.5 246.5,247.623905 246.5,193.5 C246.5,139.376095 202.623905,95.5 148.5,95.5 C94.3760945,95.5 50.5,139.376095 50.5,193.5 C50.5,247.623905 94.3760945,291.5 148.5,291.5 Z" id="Oval-4-Copy"></path>
        </g>
    </g>
</svg>